<?xml version="1.0" encoding="utf-8"?>
<!-- Generator: Adobe Illustrator 27.9.0, SVG Export Plug-In . SVG Version: 6.00 Build 0)  -->
<svg version="1.1" id="Layer_1" xmlns="http://www.w3.org/2000/svg" xmlns:xlink="http://www.w3.org/1999/xlink" x="0px" y="0px"
	 viewBox="0 0 1080 1080" style="enable-background:new 0 0 1080 1080;" xml:space="preserve">
<style type="text/css">
	.st0{fill:#080E0C;}
	.st1{fill:#ED5027;}
	.st2{fill:#640211;}
	.st3{fill:#FBDDC3;}
</style>
<g>
	<g>
		<path class="st0" d="M350.7,584.7h13.8c6.2,0,9.4,2.7,9.4,7.2c0,3.6-2.4,5.5-4.7,6.1c2.6,0.7,5.8,2.5,5.8,7
			c0,5.7-4.7,8.4-10.3,8.4h-14.1V584.7z M363.5,596.6c4.1,0,6.1-1.5,6.1-4.3c0-3.3-2.6-4.3-6-4.3h-8.9v8.5H363.5z M354.7,610.2h9.1
			c3.4,0,6.9-1,6.9-5.1c0-3.4-2.7-5.2-7.3-5.2h-8.7V610.2z"/>
		<path class="st0" d="M426.6,599c0,8.1-5.5,15-15.1,15c-9.2,0-15-6.6-15-15.1c0-8,5.9-14.9,15.1-14.9
			C420.7,584.1,426.6,591,426.6,599z M400.7,598.9c0,6.2,3.8,11.8,10.9,11.8c7,0,10.7-5.3,10.7-11.6c0-5.9-3.7-11.5-10.9-11.5
			C404.6,587.5,400.7,592.8,400.7,598.9z"/>
		<path class="st0" d="M453.6,584.7v16.3c0,7.5,4.4,9.6,8.8,9.6c5.3,0,8.4-2.5,8.4-9.6v-16.3h4.1V601c0,9.3-4.9,13-12.6,13
			c-7.7,0-12.7-3.8-12.7-12.7v-16.6H453.6z"/>
		<path class="st0" d="M507.4,588.2h-10.9v-3.4h26v3.4h-10.9v25.3h-4.1V588.2z"/>
		<path class="st0" d="M548,584.7v28.7h-4.1v-28.7H548z"/>
		<path class="st0" d="M601.5,599c0,8.1-5.5,15-15.1,15c-9.2,0-15-6.6-15-15.1c0-8,5.9-14.9,15.1-14.9
			C595.6,584.1,601.5,591,601.5,599z M575.6,598.9c0,6.2,3.8,11.8,10.9,11.8c7,0,10.7-5.3,10.7-11.6c0-5.9-3.7-11.5-10.9-11.5
			C579.6,587.5,575.6,592.8,575.6,598.9z M594.2,610.2l9.1,6.5l-2.3,2.8l-10-7.1L594.2,610.2z"/>
		<path class="st0" d="M628.5,584.7v16.3c0,7.5,4.4,9.6,8.8,9.6c5.3,0,8.4-2.5,8.4-9.6v-16.3h4.1V601c0,9.3-4.9,13-12.6,13
			c-7.7,0-12.7-3.8-12.7-12.7v-16.6H628.5z"/>
		<path class="st0" d="M695.9,600.1h-17.2v9.9h19l-0.5,3.4h-22.5v-28.7h22.2v3.4h-18.1v8.5h17.2V600.1z"/>
		<path class="st0" d="M777.3,584.7h4.1v11.6h17.3v-11.6h4.1v28.7h-4.1v-13.7h-17.3v13.7h-4.1V584.7z"/>
		<path class="st0" d="M856.2,599c0,8.1-5.5,15-15.1,15c-9.2,0-15-6.6-15-15.1c0-8,5.9-14.9,15.1-14.9
			C850.4,584.1,856.2,591,856.2,599z M830.4,598.9c0,6.2,3.8,11.8,10.9,11.8c7,0,10.7-5.3,10.7-11.6c0-5.9-3.7-11.5-10.9-11.5
			C834.3,587.5,830.4,592.8,830.4,598.9z"/>
		<path class="st0" d="M886.2,588.2h-10.9v-3.4h26v3.4h-10.9v25.3h-4.1V588.2z"/>
		<path class="st0" d="M944,600.1h-17.2v9.9h19l-0.5,3.4h-22.5v-28.7h22.2v3.4h-18.1v8.5H944V600.1z"/>
		<path class="st0" d="M968.5,584.7h4V610h17.3l-0.6,3.5h-20.7V584.7z"/>
	</g>
	<g>
		<path class="st0" d="M401.3,569.8c-6.9,0-13.4-0.5-19.6-1.6c-6.1-1.1-11.5-2.9-16.2-5.4c-4.6-2.5-8.3-5.9-10.9-10.1
			c-2.6-4.2-3.9-9.4-3.9-15.6c0-0.4,0-0.8,0-1.2c0-0.4,0-0.7,0.1-1h23.6c-0.1,0.3-0.1,0.7-0.1,1.2c0,0.5,0,1,0,1.5
			c0,3.2,1.1,5.7,3.2,7.7c2.1,2,5.2,3.5,9.2,4.4c4,1,8.7,1.5,14,1.5c2.7,0,5.3-0.1,7.8-0.4c2.5-0.3,4.8-0.7,6.9-1.2
			c2.1-0.5,3.9-1.2,5.5-2.1c1.6-0.9,2.8-1.9,3.7-3.1c0.9-1.2,1.3-2.6,1.3-4.2c0-2.6-1-4.6-3.1-6.2c-2.1-1.5-4.8-2.8-8.2-3.9
			c-3.4-1-7.3-2-11.6-2.7c-4.4-0.8-8.8-1.7-13.4-2.6c-4.6-0.9-9-2.2-13.3-3.6s-8.2-3.4-11.6-5.6c-3.5-2.3-6.2-5.2-8.2-8.7
			c-2-3.5-3-7.8-3-12.8c0-4.9,1.1-9.3,3.4-13c2.3-3.8,5.5-6.8,9.8-9.3c4.2-2.4,9.3-4.2,15.1-5.5c5.8-1.2,12.3-1.9,19.3-1.9
			c6.9,0,13.2,0.6,18.9,1.9c5.7,1.2,10.6,3.1,14.6,5.6c4.1,2.5,7.2,5.6,9.4,9.3c2.2,3.7,3.3,8.1,3.3,13.1v1.9h-23.3v-1.5
			c0-2.4-0.9-4.4-2.8-6.2c-1.9-1.8-4.5-3.2-7.8-4.2c-3.3-1-7.2-1.5-11.6-1.5c-5.3,0-9.8,0.4-13.3,1.2c-3.6,0.8-6.2,1.9-7.9,3.4
			c-1.7,1.5-2.6,3.2-2.6,5c0,2.3,1,4.1,3,5.6c2,1.4,4.8,2.6,8.2,3.6c3.5,0.9,7.3,1.8,11.6,2.6c4.3,0.8,8.7,1.7,13.3,2.6
			c4.6,0.9,9,2.1,13.3,3.6c4.3,1.4,8.2,3.3,11.6,5.6c3.5,2.3,6.2,5.1,8.2,8.5c2,3.4,3,7.5,3,12.4c0,7.9-2.1,14.3-6.2,19.1
			c-4.2,4.8-9.9,8.4-17.3,10.5C419.3,568.7,410.9,569.8,401.3,569.8z"/>
		<path class="st0" d="M497.7,568v-40.9L453,466.1h28l28.8,40.9h1l28.8-40.9h26.7l-44.6,60.9V568H497.7z"/>
		<path class="st0" d="M631.3,569.8c-11.2,0-20.6-1.7-28.2-5.2c-7.6-3.5-13.3-8.5-17.2-15.1c-3.9-6.6-5.8-14.7-5.8-24.3v-59H604
			v58.1c0,8.4,2.4,14.9,7.1,19.5c4.7,4.6,11.5,6.9,20.2,6.9c8.7,0,15.4-2.3,20.2-6.9c4.8-4.6,7.2-11.1,7.2-19.5v-58.1h23.9v59
			c0,9.6-2,17.7-5.9,24.3c-3.9,6.6-9.6,11.7-17.2,15.1C651.9,568,642.5,569.8,631.3,569.8z"/>
		<path class="st0" d="M706.9,568V466.1h21.9l47.7,53.1c0.9,0.8,2,1.9,3.2,3.4c1.2,1.5,2.5,3,3.8,4.4c1.3,1.5,2.3,2.8,3.1,3.9l1-0.1
			c-0.1-1.8-0.2-3.8-0.2-6.1c-0.1-2.3-0.1-4.2-0.1-5.9v-52.6h22.7V568h-21.6l-48-53.7c-1.8-1.9-3.6-4-5.6-6.2
			c-1.9-2.3-3.4-4.1-4.5-5.3h-0.9c0,1.4,0,3.2,0.1,5.4c0,2.2,0.1,4.6,0.1,7.2V568H706.9z"/>
		<path class="st0" d="M835,568V466.1h23.9V568H835z"/>
		<path class="st0" d="M883.8,568V466.1h23.9v49.5l51.5-49.5h30.1l-43.1,41.8l44,60.1h-29.2L929,523.3l-21.4,17.9V568H883.8z"/>
	</g>
	<g>
		<g>
			<polygon class="st1" points="321,529.5 321,550.5 300,550.5 300,571.5 279,571.5 279,592.5 258,592.5 258,613.5 237,613.5
				237,634.5 216,634.5 216,655.6 195,655.6 195,634.5 173.9,634.5 173.9,613.5 152.9,613.5 152.9,592.5 131.9,592.5 131.9,571.5
				110.9,571.5 110.9,550.5 89.9,550.5 89.9,529.5 110.9,529.5 110.9,508.5 131.9,508.5 131.9,487.5 152.9,487.5 152.9,466.5
				173.9,466.5 173.9,445.5 195,445.5 195,424.4 216,424.4 216,445.5 237,445.5 237,466.5 258,466.5 258,487.5 279,487.5 279,508.5
				300,508.5 300,529.5 			"/>
			<polygon class="st2" points="279,529.5 279,550.5 258,550.5 258,571.5 237,571.5 237,592.5 216,592.5 216,613.5 195,613.5
				195,592.5 173.9,592.5 173.9,571.5 152.9,571.5 152.9,550.5 131.9,550.5 131.9,529.5 152.9,529.5 152.9,508.5 173.9,508.5
				173.9,487.5 195,487.5 195,466.5 216,466.5 216,487.5 237,487.5 237,508.5 258,508.5 258,529.5 			"/>
			<g>
				<polygon class="st3" points="237,529.5 237,550.5 216,550.5 216,571.5 195,571.5 195,550.5 173.9,550.5 173.9,529.5 195,529.5
					195,508.5 216,508.5 216,529.5 				"/>
				<g>
					<rect x="195" y="529.5" class="st0" width="21" height="21"/>
				</g>
			</g>
		</g>
	</g>
</g>
</svg>
